<?xml version="1.0" standalone="no"?><!DOCTYPE svg PUBLIC "-//W3C//DTD SVG 1.1//EN" "http://www.w3.org/Graphics/SVG/1.1/DTD/svg11.dtd"><svg t="1725872317222" class="icon" viewBox="0 0 1024 1024" version="1.1" xmlns="http://www.w3.org/2000/svg" p-id="12266" xmlns:xlink="http://www.w3.org/1999/xlink" width="81" height="81"><path d="M299.001885 696.997388c-7.008624 0-14.036691-2.329045-19.880793-7.109931-13.403265-10.992355-15.364943-30.770817-4.372587-44.174082l158.75777-193.553251c7.743358-9.460466 20.330024-13.566994 32.119535-10.481725 11.830443 3.044336 20.820188 12.70844 23.027459 24.723078l19.839861 108.290355 153.363923-153.363923c12.259208-12.259208 32.119535-12.259208 44.378743 0 12.259208 12.259208 12.259208 32.119535 0 44.378743L510.597047 661.343353c-8.234545 8.275477-20.391423 11.258415-31.527041 7.763824-11.135618-3.452635-19.430538-12.831236-21.535479-24.294312l-18.429745-100.506065-115.809609 141.206022C317.083705 693.074032 308.073494 696.997388 299.001885 696.997388z" fill="#707070" p-id="12267"></path><path d="M491.533876 969.94999c-237.544161 0-430.81191-193.247282-430.81191-430.791443s193.267748-430.81191 430.81191-430.81191 430.81191 193.267748 430.81191 430.81191S729.078037 969.94999 491.533876 969.94999zM491.533876 171.115216c-202.931852 0-368.044354 165.112502-368.044354 368.044354s165.112502 368.023888 368.044354 368.023888 368.044354-165.092036 368.044354-368.023888S694.465728 171.115216 491.533876 171.115216z" fill="#707070" p-id="12268"></path></svg>