<?xml version="1.0" standalone="no"?><!DOCTYPE svg PUBLIC "-//W3C//DTD SVG 1.1//EN" "http://www.w3.org/Graphics/SVG/1.1/DTD/svg11.dtd"><svg t="1725872906825" class="icon" viewBox="0 0 1024 1024" version="1.1" xmlns="http://www.w3.org/2000/svg" p-id="18451" xmlns:xlink="http://www.w3.org/1999/xlink" width="81" height="81"><path d="M768 932.571429h-182.857143a18.285714 18.285714 0 0 1 0-36.571429h182.857143a91.428571 91.428571 0 0 0 91.428571-91.428571v-109.714286a18.285714 18.285714 0 0 1 36.571429 0v109.714286a128 128 0 0 1-128 128zM329.142857 786.285714H219.428571A91.428571 91.428571 0 0 1 128 694.857143v-182.857143a18.285714 18.285714 0 0 1 18.285714-18.285714h182.857143a18.285714 18.285714 0 0 1 18.285714 18.285714v256a18.285714 18.285714 0 0 1-18.285714 18.285714z m-164.571428-256V694.857143A54.857143 54.857143 0 0 0 219.428571 749.714286h91.428572v-219.428572z" p-id="18452" fill="#707070"></path><path d="M804.571429 786.285714h-109.714286a18.285714 18.285714 0 0 1-18.285714-18.285714v-256a18.285714 18.285714 0 0 1 18.285714-18.285714h182.857143a18.285714 18.285714 0 0 1 18.285714 18.285714v182.857143a91.428571 91.428571 0 0 1-91.428571 91.428571z m-91.428572-36.571428H804.571429a54.857143 54.857143 0 0 0 54.857142-54.857143v-164.571429h-146.285714z" p-id="18453" fill="#707070"></path><path d="M877.714286 530.285714a18.285714 18.285714 0 0 1-18.285715-18.285714v-36.571429a347.428571 347.428571 0 0 0-694.857142 0v36.571429a18.285714 18.285714 0 0 1-36.571429 0v-36.571429a384 384 0 0 1 768 0v36.571429a18.285714 18.285714 0 0 1-18.285714 18.285714z" p-id="18454" fill="#707070"></path></svg>