<?xml version="1.0" standalone="no"?><!DOCTYPE svg PUBLIC "-//W3C//DTD SVG 1.1//EN" "http://www.w3.org/Graphics/SVG/1.1/DTD/svg11.dtd"><svg t="1725872440808" class="icon" viewBox="0 0 1024 1024" version="1.1" xmlns="http://www.w3.org/2000/svg" p-id="16093" xmlns:xlink="http://www.w3.org/1999/xlink" width="81" height="81"><path d="M704 512H320c-11.8 0-21.3 9.6-21.3 21.3 0 11.8 9.6 21.3 21.3 21.3h384c11.8 0 21.3-9.6 21.3-21.3 0-11.7-9.5-21.3-21.3-21.3z m0 170.7H320c-11.8 0-21.3 9.6-21.3 21.3 0 11.8 9.6 21.3 21.3 21.3h384c11.8 0 21.3-9.6 21.3-21.3 0-11.8-9.5-21.3-21.3-21.3zM565.2 415.1l1 1c8 8 21.1 8 29.1 0l315.9-315.9c8-8 8-21.1 0-29.1l-1-1c-8-8-21.1-8-29.1 0L565.2 385.9c-8 8.1-8 21.1 0 29.2zM896 320c-11.8 0-21.3 9.6-21.3 21.3V896c0 11.8-9.6 21.3-21.3 21.3H170.7c-11.8 0-21.3-9.6-21.3-21.3V128c0-11.8 9.6-21.3 21.3-21.3H640c11.8 0 21.3-9.6 21.3-21.3 0-11.8-9.6-21.3-21.3-21.3H149.3c-23.6 0-42.7 19.1-42.7 42.7v810.7c0 23.6 19.1 42.7 42.7 42.7h725.3c23.6 0 42.7-19.1 42.7-42.7v-576c0-11.9-9.5-21.5-21.3-21.5z m-576 64h128c11.8 0 21.3-9.6 21.3-21.3 0-11.8-9.6-21.3-21.3-21.3H320c-11.8 0-21.3 9.6-21.3 21.3 0 11.7 9.5 21.3 21.3 21.3z" fill="#707070" p-id="16094"></path></svg>