<?xml version="1.0" standalone="no"?><!DOCTYPE svg PUBLIC "-//W3C//DTD SVG 1.1//EN" "http://www.w3.org/Graphics/SVG/1.1/DTD/svg11.dtd"><svg t="1725681788431" class="icon" viewBox="0 0 1049 1024" version="1.1" xmlns="http://www.w3.org/2000/svg" p-id="11280" xmlns:xlink="http://www.w3.org/1999/xlink" width="82.9775390625" height="81"><path d="M509.763678 3.719356c10.24-4.872828 22.951724-4.543264 32.862161 1.024 161.78023 94.749425 323.59577 189.45177 485.376 284.189426 9.015908 5.461333 16.37223 13.971126 19.526621 24.128735 4.178391 13.700414 1.600736 29.554759-7.556414 40.724598-7.838897 9.686805-20.244598 15.183448-32.650299 15.195218-21.939494 0.129471-43.890759 0-65.842023 0.058851-0.01177 168.206713-0.01177 336.401655 0 504.608368 8.651034 0.01177 17.302069 0 25.953104 0.01177 10.651954 0.105931 21.52754-0.776828 31.897011 2.271632 22.751632 5.943908 41.395494 25.011494 46.797977 47.892598 2.754207 10.416552 1.671356 21.268598 1.906759 31.920551 0.364874 16.40754-5.661425 32.850391-16.619403 45.079541-12.123218 13.782805-30.202115 22.092506-48.575264 22.151356-304.845977 0.01177-609.691954 0-914.537931 0.01177-16.772414 0.105931-33.427126-6.591264-45.515034-18.208368C9.792736 992.514943 2.201011 974.777379 2.354023 956.898575c0.235402-10.946207-0.906299-22.092506 1.836138-32.826851 4.213701-17.819954 16.301609-33.533057 32.367816-42.290023 9.639724-5.320092 20.656552-8.133149 31.673379-8.121379 13.229609-0.02354 26.470989 0.01177 39.712368-0.01177-0.02354-168.206713 0.03531-336.425195-0.03531-504.631908-20.268138 0.03531-40.536276 0-60.804414 0.02354-14.677333 0.882759-30.049103-5.249471-38.476506-17.619862-7.827126-11.181609-9.722115-26.129655-5.520184-39.041471 3.260322-10.016368 10.687264-18.314299 19.644322-23.657931L493.367908 13.194299c5.496644-3.10731 10.793195-6.567724 16.39577-9.474943m9.004138 221.960828c-4.625655 3.542805-7.13269 8.945287-9.592644 14.053517-13.712184 27.918713-27.577379 55.766805-41.242482 83.709058-32.77977 4.919908-65.606621 9.498483-98.386391 14.35954-9.157149 1.188782-17.37269 7.650575-20.50354 16.36046-3.613425 9.310161-1.01223 20.51531 6.22639 27.365517 23.693241 23.104736 47.445333 46.150621 71.138575 69.267126-5.237701 30.578759-10.463632 61.157517-15.713103 91.724506-0.847448 5.049379-2.09508 10.20469-1.047541 15.32469 1.636046 9.651494 9.298391 17.914115 18.832184 20.197517 6.297011 1.624276 13.135448 0.682667 18.820414-2.459954 29.131034-15.34823 58.285609-30.625839 87.416644-45.974069 29.566529 15.465931 59.074207 31.084874 88.628965 46.574345 7.980138 4.096 18.102437 3.636966 25.56469-1.400644 8.592184-5.484874 13.135448-16.43108 11.028598-26.400368-5.567264-32.509057-11.146299-65.006345-16.713564-97.503632 23.552-22.975264 47.12754-45.938759 70.679541-68.902253 5.308322-4.955218 8.403862-12.170299 8.168459-19.44423-0.164782-9.510253-6.16754-18.655632-14.877425-22.51623-4.307862-2.03623-9.110069-2.377563-13.759264-3.072-30.614069-4.449103-61.228138-8.886437-91.842207-13.33554-14.394851-29.166345-28.813241-58.32092-43.172782-87.499034-2.342253-5.15531-6.014529-9.828046-11.016827-12.617563-8.815816-5.225931-20.703632-4.296092-28.63669 2.189241M258.118621 731.453793c-9.345471 2.342253-16.737103 10.934437-17.443311 20.574161-0.294253 6.19108-0.706207 12.805885 2.153931 18.537931 3.848828 8.309701 12.864736 13.782805 22.021885 13.406161 171.066851-0.01177 342.145471 0 513.212322 0 3.931218-0.04708 7.885977 0.200092 11.805426-0.294253 8.038989-1.118161 15.206989-6.838437 18.196597-14.37131 2.165701-5.049379 1.777287-10.687264 1.671357-16.054437-0.176552-8.980598-6.16754-17.43154-14.477242-20.774253-5.061149-2.224552-10.722575-1.777287-16.101517-1.789057H271.877885c-4.590345 0.04708-9.26308-0.341333-13.759264 0.765057m0.07062 111.910253c-9.333701 2.306943-16.760644 10.852046-17.502161 20.48-0.341333 6.497103-0.729747 13.476782 2.495265 19.385379 4.013609 7.933057 12.770575 12.994207 21.633471 12.699954 173.773977 0.01177 347.559724 0.03531 521.333701-0.01177 11.805425 0.306023 22.763402-9.533793 23.50492-21.339218 0.211862-5.779126 0.694437-11.840736-1.588966-17.290299-3.566345-9.145379-13.241379-15.171678-22.987034-14.700874-171.05508-0.01177-342.098391 0-513.153471-0.01177-4.578575 0.03531-9.23954-0.294253-13.735725 0.788598z" p-id="11281" fill="#b8b8b8"></path></svg>